<?xml version="1.0" encoding="UTF-8"?>
<svg version="1.1" xmlns="http://www.w3.org/2000/svg" width="800" height="1024" viewBox="400 0 800 1024">
<path d="M0 0 C1.23917112 -0.00311998 2.47834225 -0.00623996 3.75506401 -0.00945449 C7.18799345 -0.01604728 10.62070377 -0.01367996 14.05361986 -0.00748205 C17.75949891 -0.00295522 21.46535888 -0.00994299 25.17123413 -0.01544189 C32.43294311 -0.02433926 39.69461076 -0.02241113 46.95632136 -0.01661661 C52.86751114 -0.01209593 58.77868936 -0.011489 64.68988037 -0.01366425 C65.95302391 -0.01412394 65.95302391 -0.01412394 67.24168551 -0.01459293 C68.95271222 -0.01523242 70.66373893 -0.01588085 72.37476563 -0.01653811 C88.42863992 -0.02224385 104.48249139 -0.0156826 120.53636193 -0.00493738 C134.27164862 0.00397234 148.00690144 0.00246792 161.7421875 -0.0067749 C177.71465105 -0.01751826 193.6870945 -0.02166717 209.65956116 -0.01555037 C211.3691101 -0.01491334 213.07865905 -0.0142846 214.78820801 -0.01366425 C216.04963623 -0.01320142 216.04963623 -0.01320142 217.33654785 -0.01272924 C223.22335294 -0.0110125 229.11014515 -0.01389577 234.99694824 -0.01862335 C242.19717339 -0.02427866 249.39735504 -0.02262046 256.59757531 -0.01206186 C260.26204893 -0.00686287 263.92645048 -0.00464724 267.59092331 -0.01136017 C288.18526203 -0.04595045 308.56171695 0.55969888 328.87207031 4.25396729 C330.00563965 4.45908936 331.13920898 4.66421143 332.30712891 4.87554932 C353.92956859 9.00937847 376.29729303 14.39078189 396.5 23.25543213 C399.28699908 24.46038205 402.09779699 25.60016305 404.91113281 26.74224854 C435.81274517 39.38671164 464.24195997 55.70258746 489.80957031 77.25396729 C490.89370944 78.15170238 491.97836659 79.04881217 493.06347656 79.94537354 C498.92719473 84.81635137 504.50674998 89.79586388 509.82519531 95.26959229 C511.62538864 97.06978562 513.47043798 98.699969 515.43457031 100.31646729 C518.60860789 102.97363177 521.25659474 105.91235317 523.93457031 109.06256104 C525.97094856 111.44257811 528.07285583 113.7531134 530.18457031 116.06646729 C583.24042341 175.03733103 614.57431158 254.52915862 620.80957031 333.25396729 C620.8659668 333.93217529 620.92236328 334.6103833 620.98046875 335.30914307 C623.24685728 364.21565475 622.56807881 393.53053813 618.80957031 422.25396729 C618.67035156 423.38125244 618.53113281 424.5085376 618.38769531 425.66998291 C615.26759187 450.67414526 609.69091647 475.31732793 601.80957031 499.25396729 C601.51469727 500.15631104 601.21982422 501.05865479 600.91601562 501.98834229 C596.27349216 516.07467256 590.96001035 529.7589418 584.80957031 543.25396729 C584.35565918 544.25218506 583.90174805 545.25040283 583.43408203 546.27886963 C576.75891251 560.83938003 569.4289383 574.7507161 560.80957031 588.25396729 C560.24544434 589.13979492 560.24544434 589.13979492 559.66992188 590.04351807 C557.45341525 593.49731407 555.15447093 596.88633988 552.80957031 600.25396729 C552.42591309 600.8074585 552.04225586 601.36094971 551.64697266 601.93121338 C546.03692075 610.00052703 540.16875675 617.75259687 533.80957031 625.25396729 C533.34260742 625.80584717 532.87564453 626.35772705 532.39453125 626.92633057 C528.89283991 631.0587826 525.3615063 635.16464895 521.80957031 639.25396729 C520.68421875 640.55140869 520.68421875 640.55140869 519.53613281 641.87506104 C510.58356915 652.00909686 501.11611328 661.74161696 490.49316406 670.12896729 C487.68290463 672.35426733 484.97017588 674.67307857 482.24707031 677.00396729 C457.5479702 697.53886905 429.16070626 713.37301163 399.80957031 726.25396729 C398.73320313 726.72834229 397.65683594 727.20271729 396.54785156 727.69146729 C362.6810202 741.90240678 327.2419057 749.91681235 290.80957031 753.25396729 C290.0322253 753.33584783 289.25488029 753.41772838 288.45397937 753.50209016 C281.4997763 754.20351269 274.62694135 754.40233126 267.64065552 754.40113831 C265.87622142 754.40665334 265.87622142 754.40665334 264.07614219 754.41227978 C260.84243334 754.42132719 257.60875432 754.42599857 254.37503505 754.4286691 C250.87528003 754.43260464 247.37553926 754.4421798 243.87579346 754.45088196 C235.44421081 754.47054616 227.01262714 754.48069567 218.58102733 754.48960975 C214.6019186 754.49400556 210.62281117 754.49936864 206.64370346 754.50459862 C193.40516245 754.52159404 180.16662221 754.53608912 166.92807198 754.54334736 C163.50103886 754.54525693 160.07400575 754.54717732 156.64697266 754.5491333 C155.79530615 754.54961704 154.94363965 754.55010078 154.06616507 754.55059918 C140.26310479 754.55890355 126.46013104 754.58425487 112.65710856 754.61671398 C98.46035003 754.64982513 84.26363547 754.66779942 70.06683815 754.6709916 C62.10592696 754.67315197 54.14514234 754.68183212 46.18426895 754.70745277 C39.40731823 754.72921458 32.63052488 754.73718302 25.85354318 754.72748599 C22.40067877 754.72295829 18.94813874 754.72473765 15.49531937 754.74424744 C11.74075977 754.76200408 7.98701345 754.75484058 4.23245239 754.74171448 C2.61961811 754.75816835 2.61961811 754.75816835 0.97420132 754.77495462 C-12.41031707 754.66261078 -24.92704573 750.19728947 -34.87792969 741.12896729 C-44.66330105 730.67273122 -48.65982487 718.6070651 -48.57074642 704.6126833 C-48.57540634 703.46346406 -48.58006626 702.31424483 -48.58486739 701.13020077 C-48.59473792 697.94886574 -48.59124505 694.76787383 -48.58203371 691.58654738 C-48.5753113 688.12218224 -48.58599636 684.65786274 -48.59442955 681.19350737 C-48.60679516 675.1244418 -48.60800936 669.05545354 -48.60187912 662.98637962 C-48.59278736 653.96118784 -48.60082073 644.93606755 -48.61217036 635.91088126 C-48.63184216 619.79035375 -48.63418361 603.6698584 -48.62897516 587.54932176 C-48.62441842 573.43887439 -48.62501661 559.32843974 -48.63081551 545.21799278 C-48.63157237 543.32540891 -48.63232835 541.43282505 -48.63308345 539.54024118 C-48.63422865 536.68828094 -48.63537852 533.8363207 -48.63654269 530.98436047 C-48.6472489 504.4664521 -48.65197182 477.94854798 -48.64407253 451.43063831 C-48.64377536 450.43088912 -48.64347819 449.43113993 -48.64317201 448.4010953 C-48.64072307 440.2824034 -48.63811148 432.16371155 -48.63548787 424.04501971 C-48.6253877 392.3837731 -48.63373601 360.72257954 -48.65698242 329.06134033 C-48.68305914 293.48771416 -48.69590165 257.91411993 -48.68879467 222.34048384 C-48.68807862 218.54666277 -48.68740423 214.7528417 -48.68675423 210.95902061 C-48.68658442 210.02489016 -48.68641461 209.09075971 -48.68623965 208.12832228 C-48.68393727 194.03111625 -48.69191087 179.93393988 -48.7050457 165.83674049 C-48.71995985 149.80127639 -48.72079635 133.76588176 -48.70297479 117.73041914 C-48.69341485 108.75946971 -48.69484033 99.78868235 -48.71220948 90.81774375 C-48.72270845 84.82040389 -48.71858526 78.8231873 -48.70272944 72.82585955 C-48.69410813 69.41193543 -48.69386597 65.9985874 -48.70699876 62.58463929 C-48.83226955 27.52334127 -48.83226955 27.52334127 -35.08886719 13.03912354 C-30.02188037 8.23175265 -24.64349164 4.9008512 -18.19042969 2.25396729 C-17.40118103 1.90841923 -16.61193237 1.56287117 -15.79876709 1.20685196 C-10.5299035 -0.18454214 -5.42735041 -0.02090739 0 0 Z " fill="#029569" transform="translate(514.1904296875,119.74603271484375)"/>
<path d="M0 0 C2.21990964 2.21990964 2.51860953 3.80408096 3.328125 6.75390625 C7.3260794 20.11916079 13.98497121 28.89697028 25.73828125 36.4296875 C36.59764182 41.65778684 46.5034337 42.58612022 58.33496094 42.54589844 C60.05100433 42.55464972 61.76703958 42.56514087 63.48306274 42.57722473 C68.10623749 42.60491511 72.72914374 42.60849319 77.35238934 42.60750484 C82.19708349 42.61064863 87.0416593 42.63629716 91.8862915 42.65948486 C101.04445951 42.69993662 110.2025565 42.72036005 119.36080003 42.73345876 C129.79383323 42.74936558 140.22674622 42.78779663 150.65970945 42.82805204 C172.10643324 42.91030277 193.5531512 42.96448738 215 43 C213 45 213 45 209.75 46.6875 C203.39814622 50.25461621 199.97206571 55.05343063 198 62 C197.702424 65.28069687 197.702424 65.28069687 197.74552441 68.78830433 C197.74071469 69.77981042 197.74071469 69.77981042 197.73580781 70.79134694 C197.72751339 73.00395663 197.73343004 75.21629523 197.73930359 77.4289093 C197.73628264 79.03222255 197.73239344 80.63553436 197.72771102 82.23884362 C197.71741483 86.64314903 197.71961698 91.04737318 197.72389162 95.45168531 C197.72635592 100.20231659 197.71734831 104.95292816 197.70985413 109.70355225 C197.69709652 119.0102981 197.69531479 128.31701512 197.69765439 137.62376825 C197.69943665 145.18838791 197.69768988 152.75299881 197.69342995 160.31761742 C197.69253716 161.93192353 197.69253716 161.93192353 197.69162634 163.57884189 C197.6904146 165.76509411 197.68920047 167.95134632 197.68798397 170.13759854 C197.67710418 190.64668656 197.6792729 211.15575815 197.68536881 231.6648471 C197.69053743 250.42749933 197.67928475 269.19009964 197.66027059 287.9527416 C197.64089843 307.21630132 197.63263516 326.47983647 197.63639385 345.743406 C197.63830695 356.55915707 197.63580773 367.37486394 197.62167931 378.19060707 C197.60977241 387.39896671 197.60835281 396.60725496 197.62046947 405.81561557 C197.62636321 410.5134118 197.62744391 415.21107741 197.61546707 419.90886497 C197.60462543 424.21141354 197.60769117 428.51372215 197.62172876 432.81625941 C197.62438044 434.37073853 197.62199435 435.92523635 197.61399289 437.47969715 C197.43492133 450.99622292 197.43492133 450.99622292 203.25 462.8125 C210.33314648 468.44682107 216.02741656 470.14785252 224.99951172 470.16113281 C225.80356445 470.16609772 226.60761719 470.17106262 227.43603516 470.17617798 C230.10059473 470.19079316 232.76509438 470.19760756 235.4296875 470.203125 C236.80619665 470.20736607 236.80619665 470.20736607 238.21051407 470.21169281 C243.0858209 470.22669819 247.96109814 470.23591366 252.83642578 470.24023438 C256.83000983 470.2445896 260.82337425 470.25836308 264.81689453 470.28125 C295.05459487 470.66824643 295.05459487 470.66824643 325 467 C326.84262015 466.6597666 328.68531483 466.31993662 330.52807617 465.98046875 C370.12753142 458.48132666 410.13238013 436.20984571 436 405 C436.75796875 404.12988281 437.5159375 403.25976562 438.296875 402.36328125 C460.48322166 376.55959546 473.26301631 345.51775427 482.42114258 313.04272461 C482.96383575 311.12761967 483.53181739 309.21973185 484.1015625 307.3125 C484.94159037 304.21535377 485.49932351 301.2382363 485.9375 298.0625 C486.42785471 294.56160147 486.97169809 291.12559664 487.74902344 287.67602539 C490.28043685 276.32262076 490.42642023 265.22655412 490.33618164 253.62695312 C490.31248869 250.37344671 490.31565665 247.12075913 490.32226562 243.8671875 C490.3075421 233.03563247 489.91719196 222.677732 488 212 C487.76547011 210.29812669 487.53950784 208.59503916 487.32421875 206.890625 C485.13765617 190.61916952 481.03261424 175.77811193 474.67895508 160.63476562 C473.06141119 156.77305115 471.57687855 153.18236946 471 149 C471.66 149 472.32 149 473 149 C479.78320855 161.60583201 486.08541478 173.98446744 490.7890625 187.54296875 C491.64369784 189.98281479 492.52137953 192.40019134 493.4375 194.81640625 C499.81703276 211.7791499 503.74251873 228.64684548 506.53857422 246.55175781 C506.88333029 248.99484228 506.88333029 248.99484228 508 251 C510.09805688 265.47629928 510.34286672 279.97551078 510.31567383 294.57910156 C510.31252244 298.0999275 510.33604686 301.61990252 510.36132812 305.140625 C510.43841619 332.90757807 506.18757062 359.99536175 500.875 387.1875 C500.71652588 388.00718262 500.55805176 388.82686523 500.39477539 389.67138672 C499.5890599 393.67162667 498.54899444 397.21676823 497 401 C496.03925964 404.27416299 495.18418396 407.57618941 494.3125 410.875 C493.21645532 414.91890013 492.10913498 418.95967282 491 423 C490.7515332 423.91136719 490.50306641 424.82273437 490.24707031 425.76171875 C481.54347721 457.26481663 468.14943774 489.17232848 451 517 C450.32735107 518.10118164 450.32735107 518.10118164 449.64111328 519.22460938 C443.53671954 529.18324447 437.27193037 538.84760318 430 548 C429.30318115 548.88969482 429.30318115 548.88969482 428.59228516 549.79736328 C408.53884051 575.3617772 385.2620592 598.58654756 357 615 C356.2044873 615.4626123 355.40897461 615.92522461 354.58935547 616.40185547 C339.39983184 625.08602405 323.79493483 631.1591704 307 636 C306.14711427 636.27098259 305.29422853 636.54196518 304.41549778 636.82115936 C292.8121416 640.06327531 280.88526527 639.43631901 268.93920898 639.41992188 C266.4050662 639.42727 263.87092676 639.43585839 261.33679199 639.44558716 C255.19364867 639.46543447 249.0506382 639.47118854 242.90746718 639.46939927 C237.91120598 639.4680866 232.91497404 639.47192138 227.91871834 639.47932434 C226.47426496 639.48142373 225.02981158 639.48352133 223.5853582 639.48561716 C222.86622079 639.48666069 222.14708338 639.48770422 221.40615392 639.48877937 C207.83954208 639.50763544 194.27298444 639.50664515 180.70636494 639.49981004 C168.31564876 639.49423194 155.92513917 639.51507958 143.53447127 639.54817051 C130.78292407 639.58195868 118.03147573 639.59706988 105.27988297 639.59245348 C98.13223088 639.59021475 90.98476993 639.59536497 83.8371563 639.62034607 C77.11709894 639.64363514 70.39754158 639.64071468 63.67745209 639.62041855 C61.21687802 639.61701336 58.75627484 639.62207624 56.29574013 639.63640213 C38.93245056 639.73049277 26.26823562 638.69160949 13.16796875 626.26171875 C4.03952148 616.65596705 -0.31819753 604.8977996 -0.24609566 591.86005592 C-0.24955719 590.32506989 -0.24955719 590.32506989 -0.25308865 588.75907403 C-0.25840205 585.31405942 -0.24939329 581.86923 -0.24050903 578.42422485 C-0.24138082 575.93591626 -0.24313132 573.44760784 -0.24568737 570.9593004 C-0.24923298 565.54110206 -0.24654911 560.12296154 -0.23841095 554.70476913 C-0.22634342 546.64812287 -0.22573911 538.59150431 -0.22749493 530.53485065 C-0.23012321 516.98245008 -0.22343806 503.430069 -0.21146011 489.8776741 C-0.19962941 476.45750456 -0.1919289 463.03734314 -0.18975449 449.61716843 C-0.18961701 448.7830001 -0.18947953 447.94883178 -0.18933788 447.08938563 C-0.18866122 442.85313235 -0.18805845 438.61687906 -0.18748413 434.38062577 C-0.18328239 404.3688166 -0.1698051 374.35701804 -0.15087891 344.34521484 C-0.13251264 315.18766333 -0.11834414 286.03011473 -0.10986328 256.87255859 C-0.10960023 255.97392609 -0.10933718 255.07529359 -0.10906615 254.1494298 C-0.10642913 245.12506079 -0.1038775 236.10069175 -0.10138843 227.07632269 C-0.0963159 208.69235096 -0.09067339 190.30837942 -0.08468628 171.92440796 C-0.0844117 171.07912737 -0.08413712 170.23384677 -0.08385422 169.36295162 C-0.06545033 112.90862997 -0.03371806 56.45431432 0 0 Z " fill="#01533B" transform="translate(466,234)"/>
<path d="M0 0 C0.82849457 -0.0049649 1.65698914 -0.00992981 2.5105896 -0.01504517 C5.25812621 -0.0296674 8.00560464 -0.03647704 10.75317383 -0.04199219 C12.17371284 -0.04623325 12.17371284 -0.04623325 13.6229496 -0.05056 C18.65732731 -0.06557056 23.69167634 -0.0747819 28.72607422 -0.07910156 C32.8446557 -0.08345082 36.96302351 -0.09719989 41.08154297 -0.12011719 C107.68069009 -0.48332724 164.41078466 12.63381031 213.33520508 60.53613281 C247.98558134 95.67317166 265.63354759 145.23139388 266.01098633 194.15332031 C266.01905807 195.17934357 266.02712982 196.20536682 266.03544617 197.26248169 C266.04919664 199.42562213 266.05995863 201.58878345 266.06787109 203.75195312 C266.07933294 205.92356919 266.09969145 208.09515839 266.12939453 210.26660156 C266.31741249 224.06438896 265.43527319 236.77859711 262.21310425 250.2118988 C261.6233001 252.82240851 261.24413482 255.44608494 260.89770508 258.09863281 C255.44883403 291.59040055 240.23033872 325.30042092 219.77270508 352.16113281 C219.15911133 352.969375 218.54551758 353.77761719 217.91333008 354.61035156 C214.06872904 359.54319711 209.98897458 364.23352701 205.77270508 368.84863281 C205.29865234 369.37118652 204.82459961 369.89374023 204.33618164 370.43212891 C181.56527767 395.01944918 149.13207374 413.05294633 116.77270508 421.16113281 C115.9821875 421.3604541 115.19166992 421.55977539 114.37719727 421.76513672 C111.59645123 422.45702369 108.81108342 423.12570227 106.02270508 423.78613281 C104.73759033 424.09611206 104.73759033 424.09611206 103.42651367 424.41235352 C88.27314219 427.860636 73.12684245 428.4843789 57.65161133 428.49707031 C55.77172246 428.50351906 53.89183455 428.51024884 52.01194763 428.51724243 C48.10673696 428.52910536 44.20161409 428.53293391 40.29638672 428.53173828 C35.3147707 428.53153384 30.33371707 428.55901418 25.35223484 428.5932827 C21.48385562 428.61558681 17.61561214 428.61957501 13.74717522 428.61851883 C11.91051199 428.62086261 10.07384431 428.62961633 8.23724556 428.64518356 C-14.29927311 428.81860851 -14.29927311 428.81860851 -23.22729492 420.16113281 C-30.07886627 413.05579956 -28.51229911 401.6092581 -28.48799133 392.48498535 C-28.49101388 390.8792333 -28.49490388 389.2734827 -28.4995839 387.66773462 C-28.50985908 383.26601721 -28.50768331 378.86438129 -28.50340331 374.46265721 C-28.50093526 369.71139858 -28.50995115 364.96015953 -28.5174408 360.20890808 C-28.53018699 350.90544565 -28.53198164 341.60201208 -28.52964053 332.29854238 C-28.52785736 324.73729911 -28.529607 317.17606461 -28.53386497 309.61482239 C-28.53475776 308.00048966 -28.53475776 308.00048966 -28.53566858 306.35354415 C-28.53688033 304.16720927 -28.53809446 301.98087439 -28.53931095 299.79453951 C-28.5501859 279.29405702 -28.54802404 258.79359099 -28.54192611 238.29310757 C-28.53675529 219.53637345 -28.54801683 200.77969125 -28.56702433 182.0229674 C-28.58639247 162.76273923 -28.59466063 143.50253563 -28.59090108 124.24229765 C-28.58898769 113.42940277 -28.59149007 102.6165521 -28.60561562 91.80366516 C-28.61751722 82.60008311 -28.6189479 73.39657248 -28.60682545 64.19298947 C-28.6009286 59.49732848 -28.59985967 54.80179821 -28.61182785 50.10614586 C-28.62265863 45.80681333 -28.6196168 41.5077211 -28.60556617 37.20839995 C-28.60291153 35.6539984 -28.6053098 34.09957819 -28.61330203 32.54519492 C-28.69292916 15.90225472 -28.69292916 15.90225472 -23.61401367 8.95410156 C-16.22259048 1.97048103 -10.02894366 0.01439962 0 0 Z " fill="#FDFDFD" transform="translate(691.227294921875,276.8388671875)"/>
<path d="M0 0 C3.61445184 3.61445184 4.10633785 9.08485819 5 14 C4.01 14.33 3.02 14.66 2 15 C1.67 204.75 1.34 394.5 1 590 C0.67 590 0.34 590 0 590 C0 395.3 0 200.6 0 0 Z " fill="#0A5941" transform="translate(466,234)"/>
<path d="M0 0 C0.66 0 1.32 0 2 0 C15.00084803 24.16061737 15.00084803 24.16061737 19 37 C17.68 37 16.36 37 15 37 C14.34 37.66 13.68 38.32 13 39 C12.7666394 38.18547363 12.7666394 38.18547363 12.52856445 37.35449219 C7.83816561 20.68343797 7.83816561 20.68343797 0.859375 4.875 C0 3 0 3 0 0 Z " fill="#0A5B41" transform="translate(937,383)"/>
<path d="M0 0 C2.475 0.495 2.475 0.495 5 1 C5.66 3.31 6.32 5.62 7 8 C5.68 8.33 4.36 8.66 3 9 C2.01 6.03 1.02 3.06 0 0 Z " fill="#146148" transform="translate(943,399)"/>
<path d="M0 0 C0.66 0 1.32 0 2 0 C1.67 3.63 1.34 7.26 1 11 C0.01 11.33 -0.98 11.66 -2 12 C-1 3.42857143 -1 3.42857143 0 0 Z " fill="#366D5D" transform="translate(954,521)"/>
<path d="M0 0 C3 1 3 1 4 3 C4.99 2.67 5.98 2.34 7 2 C7.33 3.32 7.66 4.64 8 6 C6.68 6 5.36 6 4 6 C3.34 6.66 2.68 7.32 2 8 C1.34 5.36 0.68 2.72 0 0 Z " fill="#106048" transform="translate(948,414)"/>
<path d="M0 0 C0.99 0.33 1.98 0.66 3 1 C4.1875 4.0625 4.1875 4.0625 5 7 C3.68 6.67 2.36 6.34 1 6 C0.67 4.02 0.34 2.04 0 0 Z " fill="#06543B" transform="translate(942,393)"/>
<path d="M0 0 C0.66 0 1.32 0 2 0 C1.38461538 6.52307692 1.38461538 6.52307692 -0.5625 8.9375 C-1.036875 9.288125 -1.51125 9.63875 -2 10 C-1.46274105 6.62294375 -0.88935377 3.303314 0 0 Z " fill="#2F6958" transform="translate(948,549)"/>
<path d="M0 0 C0.33 0.99 0.66 1.98 1 3 C-1.3125 5.0625 -1.3125 5.0625 -4 7 C-4.99 6.67 -5.98 6.34 -7 6 C-4.69 4.02 -2.38 2.04 0 0 Z " fill="#145A45" transform="translate(885,656)"/>
<path d="M0 0 C0.66 0.33 1.32 0.66 2 1 C0.79618552 3.49361571 -0.45428722 5.68143083 -2 8 C-2.66 7.67 -3.32 7.34 -4 7 C-2.68 4.69 -1.36 2.38 0 0 Z " fill="#1C644F" transform="translate(926,605)"/>
<path d="M0 0 C0.66 0 1.32 0 2 0 C1.34 1.98 0.68 3.96 0 6 C-0.66 6 -1.32 6 -2 6 C-2.33 6.99 -2.66 7.98 -3 9 C-2.5020163 5.26512223 -2.12508244 3.18762365 0 0 Z " fill="#C4DCD5" transform="translate(667,287)"/>
</svg>
